<svg width="15" height="14" fill="none" xmlns="http://www.w3.org/2000/svg"><path d="M10.72 8.46c0 .24-.07.495-.214.767a2.637 2.637 0 01-.655.778 3.384 3.384 0 01-1.109.595 4.71 4.71 0 01-1.507.226c-1.187 0-2.115-.346-2.781-1.04-.667-.692-1-1.62-1-2.784 0-.789.152-1.485.458-2.091a3.289 3.289 0 011.324-1.405c.577-.33 1.267-.496 2.07-.496.498 0 .954.072 1.37.218.415.145.767.333 1.056.563.289.23.509.476.66.736.153.26.23.504.23.729 0 .23-.086.425-.257.584a.88.88 0 01-.623.24.63.63 0 01-.398-.123 1.965 1.965 0 01-.356-.399c-.235-.356-.48-.623-.736-.802-.256-.179-.581-.268-.975-.268a1.66 1.66 0 00-1.373.666c-.348.443-.521 1.05-.521 1.82 0 .361.044.693.133.996.09.303.219.561.388.775.162.209.372.375.612.485.24.111.502.166.79.166.384 0 .714-.088.989-.267.274-.179.517-.451.728-.817a1.9 1.9 0 01.38-.507.723.723 0 01.5-.183.74.74 0 01.584.267.854.854 0 01.233.57" fill="#000" fill-opacity=".55"/><path d="M7.089 0a6.918 6.918 0 100 13.836 6.918 6.918 0 006.918-6.918A6.918 6.918 0 007.089 0zm0 12.88a5.962 5.962 0 110-11.925 5.962 5.962 0 010 11.925z" fill="#000" fill-opacity=".55"/></svg>