<svg width="22" height="22" fill="none" xmlns="http://www.w3.org/2000/svg"><path d="M11.31 7.748a3.473 3.473 0 00-3.465 3.465 3.473 3.473 0 003.465 3.465 3.473 3.473 0 003.466-3.465 3.473 3.473 0 00-3.466-3.465zm10.394 3.465c0-1.435.013-2.857-.068-4.29-.08-1.663-.46-3.14-1.676-4.357C18.74 1.347 17.266.97 15.602.89c-1.435-.08-2.857-.067-4.29-.067C9.878.823 8.456.81 7.023.89c-1.664.081-3.14.46-4.357 1.677C1.446 3.786 1.07 5.26.99 6.923.91 8.358.922 9.781.922 11.213s-.013 2.857.067 4.29c.08 1.663.46 3.14 1.677 4.357 1.22 1.219 2.693 1.596 4.357 1.677 1.435.08 2.857.067 4.29.067 1.435 0 2.857.013 4.29-.067 1.663-.081 3.14-.46 4.357-1.677 1.219-1.22 1.596-2.694 1.676-4.357.084-1.433.068-2.855.068-4.29zM11.31 16.545a5.325 5.325 0 01-5.332-5.332 5.325 5.325 0 015.332-5.332 5.325 5.325 0 015.332 5.332 5.325 5.325 0 01-5.332 5.332zm5.55-9.637a1.244 1.244 0 01-1.245-1.245c0-.69.557-1.246 1.246-1.246a1.244 1.244 0 01.88 2.127 1.243 1.243 0 01-.88.364z" fill="#000" fill-opacity=".7"/></svg>