<svg width="23" height="23" fill="none" xmlns="http://www.w3.org/2000/svg"><path d="M11.997.184C5.92.184.993 5.111.993 11.188c0 6.076 4.927 11.003 11.004 11.003C18.073 22.191 23 17.264 23 11.188 23 5.11 18.073.184 11.997.184zm5.288 8.294c.007.116.007.236.007.354 0 3.606-2.746 7.76-7.764 7.76a7.736 7.736 0 01-4.19-1.224c.221.024.432.034.658.034a5.473 5.473 0 003.387-1.164 2.729 2.729 0 01-2.55-1.891c.42.061.8.061 1.231-.05a2.727 2.727 0 01-2.183-2.676v-.035c.36.204.786.33 1.23.346a2.73 2.73 0 01-.845-3.644 7.744 7.744 0 005.625 2.851c-.386-1.854 1-3.355 2.665-3.355.786 0 1.493.33 1.992.86a5.39 5.39 0 001.732-.656 2.716 2.716 0 01-1.2 1.5 5.395 5.395 0 001.573-.424 5.717 5.717 0 01-1.368 1.414z" fill="#000" fill-opacity=".7"/></svg>