<svg width="18" height="19" fill="none" xmlns="http://www.w3.org/2000/svg"><g clip-path="url(#clip0)"><path d="M2.939 17.36l.536-.269-.536.269zm12.122 0l.537.269-.537-.27zM.844 7.282h16.312v-1.2H.844v1.2zM16.8 6.926v.527H18v-.527h-1.2zm-1.937 9.956H3.137v1.2h11.726v-1.2zM1.2 7.452v-.526H0v.527h1.2zm2.275 9.64A21.552 21.552 0 011.2 7.451H0c0 3.534.822 7.017 2.402 10.177l1.073-.538zm-.338-.21c.144 0 .275.082.338.21l-1.073.537a.822.822 0 00.735.453v-1.2zm11.388.21a.378.378 0 01.338-.21v1.2a.82.82 0 00.735-.453l-1.073-.538zm2.275-9.64c0 3.346-.78 6.646-2.275 9.64l1.073.537A22.753 22.753 0 0018 7.453h-1.2zm.356-.17a.356.356 0 01-.356-.356H18a.844.844 0 00-.844-.844v1.2zM.844 6.082A.844.844 0 000 6.926h1.2a.356.356 0 01-.356.356v-1.2zm3.87.909l3.6-6-1.03-.617-3.6 6 1.03.617zm4.971-6l3.6 6 1.03-.617-3.6-6-1.03.617z" fill="#000" fill-opacity=".7"/></g><defs><clipPath id="clip0"><path fill="#fff" transform="translate(0 .082)" d="M0 0h18v18H0z"/></clipPath></defs></svg>